<?xml version="1.0" encoding="UTF-8"?><svg id="logos" xmlns="http://www.w3.org/2000/svg" viewBox="0 0 1920 456"><defs><style>.cls-1{fill:#fff;}</style></defs><polygon class="cls-1" points="1120.31 178.43 1120.31 152.23 995.22 152.23 961.25 178.43 961.25 214.43 995.22 240.63 1104.25 240.63 1104.25 277.57 968.01 277.57 968.01 303.77 1096.48 303.77 1130.45 277.57 1130.45 240.63 1096.48 214.43 987.45 214.43 987.45 178.43 1120.31 178.43"/><polygon class="cls-1" points="465.48 152.23 441.62 152.23 354.09 303.77 384.34 303.77 453.6 183.92 522.76 303.77 553.02 303.77 465.48 152.23"/><polygon class="cls-1" points="725.68 152.23 556.48 152.23 556.48 178.43 627.98 178.43 627.98 303.77 654.18 303.77 654.18 178.43 725.68 178.43 725.68 152.23"/><polygon class="cls-1" points="1341.71 152.23 1172.51 152.23 1172.51 178.43 1244.01 178.43 1244.01 303.77 1270.21 303.77 1270.21 178.43 1341.71 178.43 1341.71 152.23"/><path class="cls-1" d="m286.94,152.23h-135.23v151.54h135.23l33.97-26.2v-99.14l-33.97-26.2Zm-109.03,125.34v-99.14h116.8v99.14h-116.8Z"/><polygon class="cls-1" points="1651.19 228 1636.05 201.8 1636.05 201.8 1607.4 152.23 1577.15 152.23 1620.92 228 1577.15 303.77 1607.4 303.77 1636.05 254.2 1636.05 254.2 1651.19 228"/><polygon class="cls-1" points="1694.25 228 1709.39 201.8 1709.39 201.8 1738.04 152.23 1768.29 152.23 1724.53 228 1768.29 303.77 1738.04 303.77 1709.39 254.2 1709.39 254.2 1694.25 228"/><polygon class="cls-1" points="816.67 152.23 840.53 152.23 928.07 303.77 897.82 303.77 828.55 183.92 759.39 303.77 729.13 303.77 816.67 152.23"/><polygon class="cls-1" points="1432.7 152.23 1456.57 152.23 1544.1 303.77 1513.85 303.77 1444.58 183.92 1375.42 303.77 1345.17 303.77 1432.7 152.23"/></svg>